<?xml version="1.0" encoding="UTF-8" standalone="no" ?>
<!DOCTYPE svg PUBLIC "-//W3C//DTD SVG 1.1//EN" "http://www.w3.org/Graphics/SVG/1.1/DTD/svg11.dtd">
<svg xmlns="http://www.w3.org/2000/svg" xmlns:xlink="http://www.w3.org/1999/xlink" version="1.1" width="1080" height="1080" viewBox="0 0 1080 1080" xml:space="preserve">
<desc>Created with Fabric.js 5.2.4</desc>
<defs>
</defs>
<rect x="0" y="0" width="100%" height="100%" fill="transparent"></rect>
<g transform="matrix(1 0 0 1 540 540)" id="0f8a6cf0-69ef-4486-9fc5-adfbe445ec5c"  >
</g>
<g transform="matrix(1 0 0 1 540 540)" id="f1a18da1-5625-4ff9-8892-2a7473f7ac00"  >
<rect style="stroke: none; stroke-width: 1; stroke-dasharray: none; stroke-linecap: butt; stroke-dashoffset: 0; stroke-linejoin: miter; stroke-miterlimit: 4; fill: rgb(255,255,255); fill-rule: nonzero; opacity: 1; visibility: hidden;" vector-effect="non-scaling-stroke"  x="-540" y="-540" rx="0" ry="0" width="1080" height="1080" />
</g>
<g transform="matrix(2.49 0 0 2.57 540 540)"  >
<g style="" vector-effect="non-scaling-stroke"   >
		<g transform="matrix(1 0 0 1 -4.84 17.5)"  >
<circle style="stroke: none; stroke-width: 1; stroke-dasharray: none; stroke-linecap: butt; stroke-dashoffset: 0; stroke-linejoin: miter; stroke-miterlimit: 4; fill: rgb(236,246,239); fill-rule: nonzero; opacity: 1;" vector-effect="non-scaling-stroke"  cx="0" cy="0" r="175.5" />
</g>
		<g transform="matrix(1 0 0 1 -169.34 -101)"  >
<circle style="stroke: none; stroke-width: 1; stroke-dasharray: none; stroke-linecap: butt; stroke-dashoffset: 0; stroke-linejoin: miter; stroke-miterlimit: 4; fill: rgb(236,246,239); fill-rule: nonzero; opacity: 1;" vector-effect="non-scaling-stroke"  cx="0" cy="0" r="11" />
</g>
		<g transform="matrix(1 0 0 1 120.16 -172.5)"  >
<circle style="stroke: none; stroke-width: 1; stroke-dasharray: none; stroke-linecap: butt; stroke-dashoffset: 0; stroke-linejoin: miter; stroke-miterlimit: 4; fill: rgb(236,246,239); fill-rule: nonzero; opacity: 1;" vector-effect="non-scaling-stroke"  cx="0" cy="0" r="20.5" />
</g>
		<g transform="matrix(1 0 0 1 -165.84 130.5)"  >
<circle style="stroke: none; stroke-width: 1; stroke-dasharray: none; stroke-linecap: butt; stroke-dashoffset: 0; stroke-linejoin: miter; stroke-miterlimit: 4; fill: rgb(236,246,239); fill-rule: nonzero; opacity: 1;" vector-effect="non-scaling-stroke"  cx="0" cy="0" r="19.5" />
</g>
		<g transform="matrix(1 0 0 1 183.16 111.5)"  >
<circle style="stroke: none; stroke-width: 1; stroke-dasharray: none; stroke-linecap: butt; stroke-dashoffset: 0; stroke-linejoin: miter; stroke-miterlimit: 4; fill: rgb(236,246,239); fill-rule: nonzero; opacity: 1;" vector-effect="non-scaling-stroke"  cx="0" cy="0" r="19.5" />
</g>
		<g transform="matrix(1 0 0 1 145.16 133.5)"  >
<circle style="stroke: none; stroke-width: 1; stroke-dasharray: none; stroke-linecap: butt; stroke-dashoffset: 0; stroke-linejoin: miter; stroke-miterlimit: 4; fill: rgb(236,246,239); fill-rule: nonzero; opacity: 1;" vector-effect="non-scaling-stroke"  cx="0" cy="0" r="9.5" />
</g>
		<g transform="matrix(1 0 0 1 192.32 68.9)"  >
<path style="stroke: none; stroke-width: 1; stroke-dasharray: none; stroke-linecap: butt; stroke-dashoffset: 0; stroke-linejoin: miter; stroke-miterlimit: 4; fill: rgb(255,255,255); fill-rule: nonzero; opacity: 1;" vector-effect="non-scaling-stroke"  transform=" translate(-474.66, -348.9)" d="M 474.658 331.331 L 477.721 345.798 L 491.981 348.905 L 477.721 352.011 L 474.658 366.479 L 471.596 352.011 L 457.335 348.905 L 471.596 345.798 L 474.658 331.331 Z" stroke-linecap="round" />
</g>
		<g transform="matrix(1 0 0 1 174.98 -83.43)"  >
<path style="stroke: none; stroke-width: 1; stroke-dasharray: none; stroke-linecap: butt; stroke-dashoffset: 0; stroke-linejoin: miter; stroke-miterlimit: 4; fill: rgb(142,206,163); fill-rule: nonzero; opacity: 1;" vector-effect="non-scaling-stroke"  transform=" translate(-457.32, -196.57)" d="M 456.345 183.622 C 456.568 182.565 458.078 182.565 458.301 183.622 L 460.251 192.835 C 460.333 193.22 460.633 193.521 461.017 193.605 L 470.161 195.597 C 471.21 195.826 471.21 197.323 470.161 197.551 L 461.017 199.543 C 460.633 199.627 460.333 199.928 460.251 200.313 L 458.301 209.526 C 458.078 210.583 456.568 210.583 456.345 209.526 L 454.395 200.313 C 454.313 199.928 454.014 199.627 453.629 199.543 L 444.485 197.551 C 443.436 197.323 443.436 195.826 444.485 195.597 L 453.629 193.605 C 454.014 193.521 454.313 193.22 454.395 192.835 L 456.345 183.622 Z" stroke-linecap="round" />
</g>
		<g transform="matrix(1 0 0 1 -188.14 45.57)"  >
<path style="stroke: none; stroke-width: 1; stroke-dasharray: none; stroke-linecap: butt; stroke-dashoffset: 0; stroke-linejoin: miter; stroke-miterlimit: 4; fill: rgb(142,206,163); fill-rule: nonzero; opacity: 1;" vector-effect="non-scaling-stroke"  transform=" translate(-94.2, -325.57)" d="M 93.2229 304.622 C 93.4467 303.565 94.9558 303.565 95.1796 304.622 L 98.5224 320.415 C 98.6038 320.799 98.9034 321.101 99.2878 321.185 L 114.917 324.589 C 115.967 324.818 115.967 326.315 114.917 326.544 L 99.2878 329.948 C 98.9034 330.032 98.6038 330.334 98.5224 330.718 L 95.1796 346.511 C 94.9558 347.568 93.4467 347.568 93.2229 346.511 L 89.8801 330.718 C 89.7986 330.334 89.499 330.032 89.1146 329.948 L 73.4851 326.544 C 72.4356 326.315 72.4356 324.818 73.4851 324.589 L 89.1146 321.185 C 89.499 321.101 89.7986 320.799 89.8801 320.415 L 93.2229 304.622 Z" stroke-linecap="round" />
</g>
		<g transform="matrix(1 0 0 1 -115.2 -144)"  >
<path style="stroke: none; stroke-width: 1; stroke-dasharray: none; stroke-linecap: butt; stroke-dashoffset: 0; stroke-linejoin: miter; stroke-miterlimit: 4; fill: rgb(142,206,163); fill-rule: nonzero; opacity: 1;" vector-effect="non-scaling-stroke"  transform=" translate(-167.14, -136)" d="M 155.525 136.537 C 154.946 136.414 154.946 135.586 155.525 135.463 L 164.291 133.599 C 164.502 133.554 164.668 133.389 164.713 133.178 L 166.601 124.474 C 166.726 123.897 167.549 123.897 167.674 124.474 L 169.561 133.178 C 169.607 133.389 169.772 133.554 169.984 133.599 L 178.749 135.463 C 179.329 135.586 179.329 136.414 178.749 136.537 L 169.984 138.401 C 169.772 138.446 169.607 138.611 169.561 138.822 L 167.674 147.526 C 167.549 148.103 166.726 148.103 166.601 147.526 L 164.713 138.822 C 164.668 138.611 164.502 138.446 164.291 138.401 L 155.525 136.537 Z" stroke-linecap="round" />
</g>
		<g transform="matrix(1 0 0 1 31.66 -47)"  >
<circle style="stroke: rgb(142,206,163); stroke-width: 4; stroke-dasharray: none; stroke-linecap: butt; stroke-dashoffset: 0; stroke-linejoin: miter; stroke-miterlimit: 4; fill: rgb(189,228,203); fill-rule: nonzero; opacity: 1;" vector-effect="non-scaling-stroke"  cx="0" cy="0" r="111" />
</g>
		<g transform="matrix(1 0 0 1 31.66 -47)"  >
<circle style="stroke: rgb(142,206,163); stroke-width: 4; stroke-dasharray: none; stroke-linecap: butt; stroke-dashoffset: 0; stroke-linejoin: miter; stroke-miterlimit: 4; fill: rgb(236,246,239); fill-rule: nonzero; opacity: 1;" vector-effect="non-scaling-stroke"  cx="0" cy="0" r="93" />
</g>
		<g transform="matrix(1 0 0 1 -66.11 131.3)"  >
<path style="stroke: none; stroke-width: 1; stroke-dasharray: none; stroke-linecap: butt; stroke-dashoffset: 0; stroke-linejoin: miter; stroke-miterlimit: 4; fill: rgb(189,228,203); fill-rule: nonzero; opacity: 1;" vector-effect="non-scaling-stroke"  transform=" translate(-216.24, -411.3)" d="M 169.244 438.626 L 229.236 355.303 L 231.902 353.304 L 237.902 351.97 L 246.567 351.97 L 251.233 355.303 L 255.899 357.303 L 259.899 361.969 L 263.232 369.302 L 211.238 467.289 L 205.239 470.622 L 197.907 470.622 L 187.908 467.289 L 179.909 463.956 L 172.577 453.958 L 169.244 449.958 L 169.244 438.626 Z" stroke-linecap="round" />
</g>
		<g transform="matrix(1 0 0 1 -15.38 69.64)"  >
<path style="stroke: rgb(142,206,163); stroke-width: 4; stroke-dasharray: none; stroke-linecap: butt; stroke-dashoffset: 0; stroke-linejoin: miter; stroke-miterlimit: 4; fill: none; fill-rule: nonzero; opacity: 1;" vector-effect="non-scaling-stroke"  transform=" translate(-266.96, -349.64)" d="M 274.564 337.306 L 259.355 361.969" stroke-linecap="round" />
</g>
		<g transform="matrix(1 0 0 1 -32.99 60.31)"  >
<path style="stroke: rgb(142,206,163); stroke-width: 4; stroke-dasharray: none; stroke-linecap: butt; stroke-dashoffset: 0; stroke-linejoin: miter; stroke-miterlimit: 4; fill: none; fill-rule: nonzero; opacity: 1;" vector-effect="non-scaling-stroke"  transform=" translate(-249.36, -340.31)" d="M 256.688 329.307 L 242.023 351.304" stroke-linecap="round" />
</g>
		<g transform="matrix(1 0 0 1 -81.43 116.3)"  >
<path style="stroke: rgb(142,206,163); stroke-width: 4; stroke-dasharray: none; stroke-linecap: butt; stroke-dashoffset: 0; stroke-linejoin: miter; stroke-miterlimit: 4; fill: none; fill-rule: nonzero; opacity: 1;" vector-effect="non-scaling-stroke"  transform=" translate(-200.91, -396.3)" d="M 233.236 351.97 L 168.577 440.626" stroke-linecap="round" />
</g>
		<g transform="matrix(1 0 0 1 -45.77 138.3)"  >
<path style="stroke: rgb(142,206,163); stroke-width: 4; stroke-dasharray: none; stroke-linecap: butt; stroke-dashoffset: 0; stroke-linejoin: miter; stroke-miterlimit: 4; fill: none; fill-rule: nonzero; opacity: 1;" vector-effect="non-scaling-stroke"  transform=" translate(-236.57, -418.3)" d="M 262.566 367.968 L 210.572 468.622" stroke-linecap="round" />
</g>
		<g transform="matrix(1 0 0 1 -35.11 80.5)"  >
<path style="stroke: rgb(142,206,163); stroke-width: 4; stroke-dasharray: none; stroke-linecap: butt; stroke-dashoffset: 0; stroke-linejoin: miter; stroke-miterlimit: 4; fill: none; fill-rule: nonzero; opacity: 1;" vector-effect="non-scaling-stroke"  transform=" translate(-247.23, -360.5)" d="M 231.902 353.304 L 233 352.693 C 235.4 351.356 238.159 350.804 240.889 351.113 L 240.889 351.113 C 242.003 351.24 243.097 351.508 244.144 351.912 L 246.023 352.637 L 246.656 352.848 C 250.185 354.024 253.391 356.006 256.022 358.636 L 256.022 358.636 L 258.089 360.704 C 258.93 361.544 259.664 362.484 260.275 363.504 L 260.275 363.504 C 260.991 364.696 261.532 365.986 261.881 367.332 L 262.565 369.968" stroke-linecap="round" />
</g>
		<g transform="matrix(1 0 0 1 -92.28 174.94)"  >
<path style="stroke: rgb(142,206,163); stroke-width: 4; stroke-dasharray: none; stroke-linecap: butt; stroke-dashoffset: 0; stroke-linejoin: miter; stroke-miterlimit: 4; fill: none; fill-rule: nonzero; opacity: 1;" vector-effect="non-scaling-stroke"  transform=" translate(-190.06, -454.94)" d="M 211.905 467.289 L 209.066 468.566 C 206.316 469.803 203.349 470.488 200.335 470.583 L 200.335 470.583 C 197.994 470.657 195.656 470.373 193.4 469.742 L 191.488 469.206 L 190.847 468.989 C 185.18 467.066 180.019 463.891 175.748 459.7 L 175.748 459.7 L 173.278 457.277 C 171.348 455.382 169.901 453.051 169.06 450.481 L 169.06 450.481 C 168.013 447.283 167.947 443.845 168.869 440.609 L 169.244 439.293" stroke-linecap="round" />
</g>
</g>
</g>
</svg>